<svg id="SvgjsSvg1011" xmlns="http://www.w3.org/2000/svg" version="1.1" xmlns:xlink="http://www.w3.org/1999/xlink" xmlns:svgjs="http://svgjs.com/svgjs" width="33" height="32"><defs id="SvgjsDefs1012"></defs><path id="SvgjsPath1013" d="M1337.18 68.414C1338.26 69.4615 1338.26 71.1598 1337.18 72.2075C1336.64 72.7311 1335.93 72.993 1335.22 72.993C1334.51 72.993 1333.8 72.7311 1333.26 72.2075L1321.99 61.2881L1310.71 72.2075C1310.17 72.7311 1309.47 72.993 1308.76 72.993C1308.05 72.993 1307.34 72.7311 1306.8 72.2075C1305.72 71.15979999999999 1305.72 69.4615 1306.8 68.414L1318.07 57.494600000000005L1306.8 46.575700000000005C1305.72 45.527800000000006 1305.72 43.8293 1306.8 42.78170000000001C1307.8799999999999 41.73480000000001 1309.6299999999999 41.73480000000001 1310.71 42.78170000000001L1321.99 53.700900000000004L1333.26 42.7817C1334.34 41.7348 1336.09 41.7348 1337.18 42.7817C1338.26 43.8293 1338.26 45.5278 1337.18 46.5757L1325.9 57.4946Z " fill="#d2d9d7" transform="matrix(1,0,0,1,-1305,-41)"></path></svg>