<svg id="SvgjsSvg1014" xmlns="http://www.w3.org/2000/svg" version="1.1" xmlns:xlink="http://www.w3.org/1999/xlink" xmlns:svgjs="http://svgjs.com/svgjs" width="13" height="14"><defs id="SvgjsDefs1015"></defs><path id="SvgjsPath1016" d="M1268.65 182.664C1269.0900000000001 183.09699999999998 1269.0900000000001 183.801 1268.65 184.23499999999999C1268.44 184.451 1268.15 184.55999999999997 1267.8600000000001 184.55999999999997C1267.5700000000002 184.55999999999997 1267.2900000000002 184.45099999999996 1267.0700000000002 184.23499999999999L1262.5000000000002 179.713L1257.9300000000003 184.23499999999999C1257.7100000000003 184.451 1257.4200000000003 184.55999999999997 1257.1400000000003 184.55999999999997C1256.8500000000004 184.55999999999997 1256.5600000000004 184.45099999999996 1256.3400000000004 184.23499999999999C1255.9000000000003 183.801 1255.9000000000003 183.09699999999998 1256.3400000000004 182.664L1260.9100000000003 178.142L1256.3400000000004 173.62C1255.9000000000003 173.186 1255.9000000000003 172.483 1256.3400000000004 172.049C1256.7800000000004 171.615 1257.4900000000005 171.615 1257.9300000000003 172.049L1262.5000000000002 176.571L1267.0700000000002 172.049C1267.5100000000002 171.615 1268.2200000000003 171.615 1268.65 172.049C1269.0900000000001 172.483 1269.0900000000001 173.186 1268.65 173.62L1264.0900000000001 178.142Z " fill="#a8b3af" transform="matrix(1,0,0,1,-1256,-171)"></path></svg>