<svg id="SvgjsSvg1000" xmlns="http://www.w3.org/2000/svg" version="1.1" xmlns:xlink="http://www.w3.org/1999/xlink" xmlns:svgjs="http://svgjs.com/svgjs" width="12" height="17"><defs id="SvgjsDefs1001"></defs><path id="SvgjsPath1007" d="M541.081 494.477C540.037 493.532 538.587 493.012 537 493.012C535.413 493.012 533.963 493.532 532.919 494.477C531.664 495.61199999999997 531.001 497.337 531.001 499.467C531.001 504.10499999999996 536.26 509.53999999999996 536.4839999999999 509.769C536.6199999999999 509.909 536.8059999999999 509.987 536.9999999999999 509.987C537.1939999999998 509.987 537.3799999999999 509.90900000000005 537.5159999999998 509.769C537.7399999999999 509.54 542.9989999999998 504.105 542.9989999999998 499.467C542.9989999999998 497.337 542.3359999999998 495.61199999999997 541.0809999999998 494.477ZM537 497C538.381 497 539.5 498.119 539.5 499.5C539.5 500.881 538.381 502 537 502C535.619 502 534.5 500.881 534.5 499.5C534.5 498.119 535.619 497 537 497Z " fill="#ffffff" transform="matrix(1,0,0,1,-531,-493)"></path></svg>