<svg id="SvgjsSvg1008" xmlns="http://www.w3.org/2000/svg" version="1.1" xmlns:xlink="http://www.w3.org/1999/xlink" xmlns:svgjs="http://svgjs.com/svgjs" width="12" height="11"><defs id="SvgjsDefs1009"></defs><path id="SvgjsPath1010" d="M644.001 707.094C644.001 707.5630000000001 643.62 707.9430000000001 643.151 707.9430000000001L639.755 707.9430000000001L639.755 711.1510000000001C639.755 711.6200000000001 639.374 712.0000000000001 638.905 712.0000000000001C638.4359999999999 712.0000000000001 638.0559999999999 711.6200000000001 638.0559999999999 711.1510000000001L638.0559999999999 707.9430000000001L634.848 707.9430000000001C634.3789999999999 707.9430000000001 633.9989999999999 707.5630000000001 633.9989999999999 707.094C633.9989999999999 706.625 634.3789999999999 706.245 634.848 706.245L638.0559999999999 706.245L638.0559999999999 702.848C638.0559999999999 702.3789999999999 638.4359999999999 701.9989999999999 638.905 701.9989999999999C639.374 701.9989999999999 639.755 702.3789999999999 639.755 702.848L639.755 706.245L643.151 706.245C643.62 706.245 644.001 706.625 644.001 707.094Z " fill="#b3b3b3" transform="matrix(1,0,0,1,-633,-701)"></path></svg>